<svg width="610" height="13" viewBox="0 0 610 13" fill="none" xmlns="http://www.w3.org/2000/svg">
<path d="M0.666676 7.12986C0.672192 10.0754 3.06447 12.4587 6.00999 12.4532C8.9555 12.4477 11.3388 10.0554 11.3333 7.10989C11.3278 4.16437 8.93553 1.78103 5.99001 1.78655C3.0445 1.79206 0.66116 4.18435 0.666676 7.12986ZM598.667 6.01001C598.672 8.95552 601.064 11.3389 604.01 11.3333C606.955 11.3278 609.339 8.93555 609.333 5.99004C609.328 3.04452 606.935 0.661183 603.99 0.666699C601.044 0.672215 598.661 3.0645 598.667 6.01001ZM6.00187 8.11987L604.002 7.00002L603.998 5.00002L5.99813 6.11987L6.00187 8.11987Z" fill="#CBCBCB"/>
</svg>
