<svg width="6" height="60" viewBox="0 0 6 60" fill="none" xmlns="http://www.w3.org/2000/svg">
<path d="M3 54C2.20435 54 1.44129 54.3161 0.87868 54.8787C0.316071 55.4413 0 56.2044 0 57C0 58.665 1.35 60 3 60C4.665 60 6 58.665 6 57C6 56.2044 5.68393 55.4413 5.12132 54.8787C4.55871 54.3161 3.79565 54 3 54Z" fill="black"/>
<path d="M3 36C2.20435 36 1.44129 36.3161 0.87868 36.8787C0.316071 37.4413 0 38.2044 0 39C0 40.665 1.35 42 3 42C4.665 42 6 40.665 6 39C6 38.2044 5.68393 37.4413 5.12132 36.8787C4.55871 36.3161 3.79565 36 3 36Z" fill="black" fill-opacity="0.7"/>
<path d="M3 18C2.20435 18 1.44129 18.3161 0.87868 18.8787C0.316071 19.4413 0 20.2044 0 21C0 22.665 1.35 24 3 24C4.665 24 6 22.665 6 21C6 20.2044 5.68393 19.4413 5.12132 18.8787C4.55871 18.3161 3.79565 18 3 18Z" fill="black" fill-opacity="0.45"/>
<path d="M3 0C2.20435 0 1.44129 0.316071 0.87868 0.87868C0.316071 1.44129 0 2.20435 0 3C0 4.665 1.35 6 3 6C4.665 6 6 4.665 6 3C6 2.20435 5.68393 1.44129 5.12132 0.87868C4.55871 0.316071 3.79565 0 3 0Z" fill="black" fill-opacity="0.15"/>
</svg>
