<svg width="22" height="37" viewBox="0 0 22 37" fill="none" xmlns="http://www.w3.org/2000/svg">
<path d="M13.7415 16.5846H22V13.5385H15.8738L12.4892 7.90308C11.9815 7.05692 11.0677 6.48154 10.0185 6.48154C9.71385 6.48154 9.44308 6.53231 9.17231 6.61692L0 9.47692V18.2769H3.04615V12.0662L6.61692 10.9492L0 36.8923H3.04615L7.90308 23.1677L11.8462 28.4308V36.8923H14.8923V26.0446L10.6785 18.3615L11.9138 13.5046M13.5385 6.09231C15.2308 6.09231 16.5846 4.73846 16.5846 3.04615C16.5846 1.35385 15.2308 0 13.5385 0C11.8462 0 10.4923 1.35385 10.4923 3.04615C10.4923 4.73846 11.8462 6.09231 13.5385 6.09231Z" fill="black"/>
</svg>
