<svg width="1150" height="12" viewBox="0 0 1150 12" fill="none" xmlns="http://www.w3.org/2000/svg">
<path d="M0.666667 6C0.666666 8.94552 3.05448 11.3333 6 11.3333C8.94552 11.3333 11.3333 8.94552 11.3333 6C11.3333 3.05448 8.94552 0.666667 6 0.666667C3.05448 0.666666 0.666667 3.05448 0.666667 6ZM1138.67 6.0001C1138.67 8.94562 1141.05 11.3334 1144 11.3334C1146.95 11.3334 1149.33 8.94562 1149.33 6.0001C1149.33 3.05458 1146.95 0.666766 1144 0.666766C1141.05 0.666766 1138.67 3.05458 1138.67 6.0001ZM6 7L1144 7.0001L1144 5.0001L6 5L6 7Z" fill="#CBCBCB"/>
</svg>
