<svg width="92" height="79" viewBox="0 0 92 79" fill="none" xmlns="http://www.w3.org/2000/svg">
<path d="M71.1229 24.9509C70.9957 24.9509 70.911 24.9509 70.7838 24.9509H70.5719C62.5612 24.7336 56.585 19.4443 56.585 12.9234C56.585 6.25752 62.9427 0.859619 70.6991 0.859619C78.4554 0.859619 84.8132 6.29375 84.8132 12.9234C84.7708 19.4806 78.7945 24.7698 71.1653 24.9871C71.1653 24.9509 71.1653 24.9509 71.1229 24.9509ZM70.6991 6.25755C66.4182 6.25755 62.9427 9.22821 62.9427 12.8872C62.9427 16.4737 66.2063 19.3719 70.4024 19.5168C70.4447 19.4806 70.7838 19.4806 71.1653 19.5168C75.2766 19.3357 78.4554 16.4375 78.4978 12.8872C78.4978 9.22821 75.0223 6.25755 70.6991 6.25755Z" fill="#05DD82"/>
<path d="M71.1654 51.6501C69.5124 51.6501 67.8594 51.5414 66.2064 51.2878C64.4686 51.0342 63.3243 49.6213 63.621 48.136C63.9176 46.6507 65.5707 45.6725 67.3084 45.9261C72.5217 46.6869 78.0317 45.854 81.7192 43.7528C83.7113 42.6298 84.7709 41.2165 84.7709 39.8037C84.7709 38.3908 83.6689 37.0141 81.7192 35.8911C78.0317 33.7899 72.437 32.9566 67.1813 33.7537C65.4435 34.0435 63.7905 33.0291 63.4938 31.544C63.1971 30.0586 64.3415 28.6458 66.0793 28.3922C72.988 27.3416 80.151 28.4646 85.2371 31.3628C88.967 33.5001 91.1286 36.5432 91.1286 39.8037C91.1286 43.0279 89.0094 46.1076 85.2371 48.2813C81.3801 50.4549 76.3787 51.6501 71.1654 51.6501Z" fill="#05DD82"/>
<path d="M20.135 24.9483C20.0926 24.9483 20.0502 24.9483 20.0502 24.9483C12.421 24.731 6.44473 19.4417 6.40234 12.9208C6.40234 6.25493 12.76 0.820801 20.5164 0.820801C28.2728 0.820801 34.6305 6.25493 34.6305 12.8846C34.6305 19.4417 28.6543 24.731 21.0251 24.9483L20.135 22.2313L20.4317 24.9483C20.3469 24.9483 20.2197 24.9483 20.135 24.9483ZM20.5588 19.5142C20.8131 19.5142 21.0251 19.5142 21.2794 19.5504C25.0516 19.4055 28.3576 16.5073 28.3576 12.9208C28.3576 9.26181 24.8821 6.29112 20.6012 6.29112C16.3204 6.29112 12.8448 9.26181 12.8448 12.9208C12.8448 16.4711 16.066 19.3331 20.1774 19.5504C20.2197 19.5142 20.3893 19.5142 20.5588 19.5142Z" fill="#05DD82"/>
<path d="M20.0918 51.6501C14.8785 51.6501 9.87714 50.4549 6.02013 48.2813C2.29028 46.1438 0.128662 43.0641 0.128662 39.8037C0.128662 36.5794 2.29028 33.5001 6.02013 31.3628C11.1063 28.4646 18.2693 27.3416 25.178 28.3922C26.9158 28.6458 28.0602 30.0586 27.7635 31.544C27.4668 33.0291 25.8138 34.0435 24.076 33.7537C18.8203 32.9566 13.2679 33.7899 9.53806 35.8911C7.54598 37.0141 6.48636 38.3908 6.48636 39.8037C6.48636 41.2165 7.58836 42.6298 9.53806 43.7528C13.2255 45.854 18.7355 46.6869 23.9488 45.9261C25.6866 45.6725 27.3396 46.6869 27.6363 48.136C27.933 49.6213 26.7886 51.0342 25.0508 51.2878C23.3978 51.5414 21.7448 51.6501 20.0918 51.6501Z" fill="#05DD82"/>
<path d="M45.6905 52.0084C45.5633 52.0084 45.4786 52.0084 45.3514 52.0084H45.1395C37.1288 51.791 31.1526 46.5018 31.1526 39.9808C31.1526 33.315 37.5102 27.917 45.2666 27.917C53.023 27.917 59.3807 33.3512 59.3807 39.9808C59.3384 46.538 53.3621 51.8272 45.7329 52.0446C45.7329 52.0084 45.7329 52.0084 45.6905 52.0084ZM45.2666 33.315C40.9858 33.315 37.5102 36.2856 37.5102 39.9446C37.5102 43.5311 40.7739 46.4293 44.97 46.5742C45.0123 46.538 45.3514 46.538 45.7329 46.5742C49.8442 46.3931 53.023 43.4949 53.0654 39.9446C53.0654 36.3218 49.5899 33.315 45.2666 33.315Z" fill="#05DD82"/>
<path d="M45.6911 78.7433C40.6049 78.7433 35.5188 77.6203 31.577 75.3379C27.8472 73.2005 25.6855 70.1574 25.6855 66.8969C25.6855 63.6727 27.8048 60.5571 31.577 58.4197C39.5029 53.9275 51.9216 53.9275 59.8052 58.4197C63.535 60.5571 65.6967 63.6002 65.6967 66.8607C65.6967 70.0849 63.5774 73.2005 59.8052 75.3379C55.8634 77.584 50.7773 78.7433 45.6911 78.7433ZM35.0949 62.9844C33.1029 64.1074 32.0432 65.5203 32.0432 66.9332C32.0432 68.346 33.1452 69.7227 35.0949 70.8457C40.8169 74.1424 50.523 74.1424 56.2449 70.8457C58.237 69.7227 59.2966 68.3098 59.2966 66.8969C59.2966 65.4841 58.1946 64.1074 56.2449 62.9844C50.5653 59.6877 40.8593 59.7239 35.0949 62.9844Z" fill="#05DD82"/>
</svg>
