<svg width="89" height="79" viewBox="0 0 89 79" fill="none" xmlns="http://www.w3.org/2000/svg">
<path d="M48.4293 55.1299H40.7345C35.2908 55.1299 30.8293 51.075 30.8293 46.0788C30.8293 44.5945 32.221 43.3635 33.8991 43.3635C35.5773 43.3635 36.9689 44.5945 36.9689 46.0788C36.9689 48.0701 38.647 49.6992 40.7345 49.6992H48.4293C50.0256 49.6992 51.2945 48.4321 51.2945 46.8753C51.2945 44.9203 50.6805 44.6307 49.2889 44.1962L36.9689 40.3948C34.3493 39.5983 30.8293 37.8967 30.8293 32.5747C30.8293 28.0493 34.8815 24.3203 39.834 24.3203H47.5289C52.9726 24.3203 57.434 28.3752 57.434 33.3712C57.434 34.8556 56.0424 36.0865 54.3642 36.0865C52.6861 36.0865 51.2945 34.8556 51.2945 33.3712C51.2945 31.3801 49.6163 29.7509 47.5289 29.7509H39.834C38.2377 29.7509 36.9689 31.0181 36.9689 32.5747C36.9689 34.5297 37.5828 34.8194 38.9745 35.2538L51.2945 39.0553C53.914 39.8517 57.434 41.5533 57.434 46.8753C57.434 51.437 53.3819 55.1299 48.4293 55.1299Z" fill="#05DD82"/>
<path d="M44.1281 58.7523C42.45 58.7523 41.0583 57.5214 41.0583 56.037V23.4533C41.0583 21.969 42.45 20.738 44.1281 20.738C45.8063 20.738 47.1979 21.969 47.1979 23.4533V56.037C47.1979 57.5214 45.8063 58.7523 44.1281 58.7523Z" fill="#05DD82"/>
<path d="M44.1287 78.6596C19.857 78.6596 0.128662 61.2093 0.128662 39.7402C0.128662 18.2712 19.857 0.820801 44.1287 0.820801C45.8068 0.820801 47.1984 2.05174 47.1984 3.53611C47.1984 5.02048 45.8068 6.25142 44.1287 6.25142C23.2542 6.25142 6.2682 21.2761 6.2682 39.7402C6.2682 58.2043 23.2542 73.229 44.1287 73.229C65.0031 73.229 81.9891 58.2043 81.9891 39.7402C81.9891 38.2559 83.3808 37.0249 85.0589 37.0249C86.737 37.0249 88.1287 38.2559 88.1287 39.7402C88.1287 61.2093 68.4003 78.6596 44.1287 78.6596Z" fill="#05DD82"/>
<path d="M80.966 24.3559H64.5939C62.9158 24.3559 61.5242 23.125 61.5242 21.6406V7.15903C61.5242 5.67466 62.9158 4.44373 64.5939 4.44373C66.2721 4.44373 67.6637 5.67466 67.6637 7.15903V18.9253H80.966C82.6442 18.9253 84.0358 20.1563 84.0358 21.6406C84.0358 23.125 82.6442 24.3559 80.966 24.3559Z" fill="#05DD82"/>
<path d="M64.5915 24.3527C63.8138 24.3527 63.0362 24.0993 62.4222 23.5562C61.2352 22.5063 61.2352 20.7685 62.4222 19.7186L82.8873 1.61654C84.0743 0.566622 86.0389 0.566622 87.2259 1.61654C88.4129 2.66646 88.4129 4.40425 87.2259 5.45417L66.7608 23.5562C66.1469 24.0993 65.3692 24.3527 64.5915 24.3527Z" fill="#05DD82"/>
</svg>
