<svg width="79" height="79" viewBox="0 0 79 79" fill="none" xmlns="http://www.w3.org/2000/svg">
<path d="M39.4643 57.8888C36.1832 57.8888 32.8634 57.0917 30.277 55.5338L7.03847 41.2951C2.71502 38.6502 0.128662 34.1938 0.128662 29.339C0.128662 24.4841 2.71502 20.0277 7.03847 17.3828L30.3156 3.18035C35.4883 0.0282707 43.5562 0.0282707 48.6903 3.21658L71.8131 17.4553C76.0979 20.1002 78.6843 24.5565 78.6843 29.3752C78.6843 34.1938 76.0979 38.6502 71.8131 41.2951L48.6903 55.5338C46.1039 57.128 42.7841 57.8888 39.4643 57.8888ZM39.4643 6.25997C37.264 6.25997 35.0637 6.73097 33.481 7.74544L10.2425 21.9479C7.5403 23.6145 5.95761 26.2956 5.95761 29.339C5.95761 32.3824 7.5017 35.0634 10.2425 36.73L33.481 50.9687C36.685 52.9252 42.3209 52.9252 45.5249 50.9687L68.6477 36.73C71.3498 35.0634 72.8939 32.3824 72.8939 29.339C72.8939 26.2956 71.3498 23.6145 68.6477 21.9479L45.5249 7.70921C43.9036 6.76721 41.7033 6.25997 39.4643 6.25997Z" fill="#05DD82"/>
<path d="M39.4216 78.7218C37.7231 78.7218 35.986 78.5044 34.5963 78.0696L22.2822 74.2291C16.4533 72.4176 11.8596 66.4395 11.8982 60.6788L11.9368 43.6866C11.9368 42.2011 13.2493 40.9692 14.832 40.9692C16.4147 40.9692 17.7271 42.2011 17.7271 43.6866L17.6885 60.6788C17.6885 64.0845 20.6995 67.9974 24.1351 69.0844L36.4492 72.9248C37.9933 73.3958 40.8499 73.3958 42.394 72.9248L54.7081 69.0844C58.1437 67.9974 61.1547 64.0845 61.1547 60.715V43.9039C61.1547 42.4185 62.4672 41.1866 64.0499 41.1866C65.6326 41.1866 66.945 42.4185 66.945 43.9039V60.715C66.945 66.4757 62.39 72.4176 56.561 74.2654L44.2469 78.1058C42.8572 78.5044 41.1201 78.7218 39.4216 78.7218Z" fill="#05DD82"/>
<path d="M75.7121 53.3599C74.1294 53.3599 72.8169 52.128 72.8169 50.6426V28.9041C72.8169 27.4186 74.1294 26.1868 75.7121 26.1868C77.2948 26.1868 78.6072 27.4186 78.6072 28.9041V50.6426C78.6072 52.128 77.2948 53.3599 75.7121 53.3599Z" fill="#05DD82"/>
</svg>
