<svg width="381" height="12" viewBox="0 0 381 12" fill="none" xmlns="http://www.w3.org/2000/svg">
<path d="M0.666667 6C0.666667 8.94552 3.05448 11.3333 6 11.3333C8.94552 11.3333 11.3333 8.94552 11.3333 6C11.3333 3.05448 8.94552 0.666667 6 0.666667C3.05448 0.666667 0.666667 3.05448 0.666667 6ZM369.701 6C369.701 8.94552 372.088 11.3333 375.034 11.3333C377.979 11.3333 380.367 8.94552 380.367 6C380.367 3.05448 377.979 0.666667 375.034 0.666667C372.088 0.666667 369.701 3.05448 369.701 6ZM6 7H375.034V5H6V7Z" fill="#CBCBCB"/>
</svg>
