<?xml version="1.0" encoding="UTF-8"?>
<svg xmlns="http://www.w3.org/2000/svg" xmlns:xlink="http://www.w3.org/1999/xlink" width="321px" height="234px" viewBox="0 0 321 234" version="1.1">
<g id="surface1">
<path style=" stroke:none;fill-rule:evenodd;fill:rgb(100%,100%,100%);fill-opacity:1;" d="M 235.453125 138.007812 L 219.480469 92.269531 L 204.777344 138.007812 Z M 235.453125 138.007812 "/>
<path style=" stroke:none;fill-rule:evenodd;fill:rgb(100%,100%,100%);fill-opacity:1;" d="M 252.371094 92.269531 L 237.667969 138.007812 L 268.34375 138.007812 Z M 252.371094 92.269531 "/>
<path style=" stroke:none;fill-rule:evenodd;fill:rgb(100%,100%,100%);fill-opacity:1;" d="M 220.746094 88.28125 L 236.558594 134.285156 L 252.371094 88.28125 Z M 220.746094 88.28125 "/>
<path style=" stroke:none;fill-rule:evenodd;fill:rgb(100%,100%,100%);fill-opacity:1;" d="M 235.453125 141.730469 L 204.777344 141.730469 L 220.746094 187.730469 Z M 235.453125 141.730469 "/>
<path style=" stroke:none;fill-rule:evenodd;fill:rgb(100%,100%,100%);fill-opacity:1;" d="M 268.34375 141.730469 L 236.558594 141.730469 L 252.371094 187.730469 Z M 268.34375 141.730469 "/>
<path style=" stroke:none;fill-rule:evenodd;fill:rgb(100%,100%,100%);fill-opacity:1;" d="M 221.855469 189.59375 L 252.371094 189.59375 L 236.558594 143.589844 Z M 221.855469 189.59375 "/>
<path style=" stroke:none;fill-rule:evenodd;fill:rgb(100%,100%,100%);fill-opacity:1;" d="M 188.804688 191.453125 L 219.480469 191.453125 L 203.667969 145.71875 Z M 188.804688 191.453125 "/>
<path style=" stroke:none;fill-rule:evenodd;fill:rgb(100%,100%,100%);fill-opacity:1;" d="M 253.636719 189.59375 L 284.3125 189.59375 L 268.34375 143.589844 Z M 253.636719 189.59375 "/>
<path style=" stroke:none;fill-rule:evenodd;fill:rgb(100%,100%,100%);fill-opacity:1;" d="M 90.132812 94.132812 C 84.757812 90.144531 78.90625 88.28125 73.054688 88.546875 L 67.363281 88.546875 L 67.363281 111.414062 L 68.46875 111.414062 C 71.949219 111.414062 74.160156 111.414062 76.375 117.265625 C 79.855469 123.117188 79.855469 130.5625 78.589844 141.996094 C 77.484375 149.707031 76.375 159.28125 71.789062 163.003906 C 70.523438 165.128906 68.945312 166.460938 67.203125 166.726562 L 67.203125 189.59375 C 72.898438 189.59375 77.484375 185.871094 83.015625 180.019531 C 89.816406 170.449219 94.402344 157.152344 96.617188 138.007812 C 98.039062 122.851562 99.144531 103.703125 90.132812 94.132812 Z M 67.363281 88.28125 L 46.964844 88.28125 L 36.84375 191.453125 L 59.613281 191.453125 C 63.09375 191.453125 65.308594 191.453125 67.519531 189.59375 L 67.519531 166.726562 C 65.308594 166.726562 64.042969 168.585938 61.828125 166.726562 L 56.136719 166.726562 L 61.671875 111.148438 L 67.363281 111.148438 Z M 67.363281 88.28125 "/>
<path style=" stroke:none;fill-rule:evenodd;fill:rgb(100%,100%,100%);fill-opacity:1;" d="M 126.503906 88.28125 L 107.210938 88.28125 L 96.933594 191.453125 L 140.101562 191.453125 L 143.421875 168.585938 L 117.332031 168.585938 Z M 126.503906 88.28125 "/>
<path style=" stroke:none;fill-rule:evenodd;fill:rgb(100%,100%,100%);fill-opacity:1;" d="M 172.992188 113.277344 L 197.976562 113.277344 L 201.296875 88.28125 L 157.019531 88.28125 L 145.792969 191.453125 L 163.980469 191.453125 L 168.40625 153.164062 L 188.804688 153.164062 L 192.285156 130.296875 L 170.777344 130.296875 Z M 172.992188 113.277344 "/>
<path style=" stroke:none;fill-rule:evenodd;fill:rgb(100%,100%,100%);fill-opacity:1;" d="M 221.855469 84.558594 L 250.160156 86.421875 L 236.558594 42.546875 Z M 221.855469 84.558594 "/>
</g>
</svg>
